<svg width="299" height="30" viewBox="0 0 299 30" fill="none" xmlns="http://www.w3.org/2000/svg">
<path d="M10.9504 29.144C14.7064 29.144 17.1184 28.082 18.1864 25.958L18.8704 29H22.3264V16.418H11.9044V20.036H16.2964L16.0804 20.738C16.0084 22.334 15.6184 23.444 14.9104 24.068C14.2024 24.68 13.0744 24.986 11.5264 24.986C9.87042 24.986 8.60442 24.458 7.72842 23.402C6.85242 22.346 6.41442 20.204 6.41442 16.976C6.41442 13.256 6.85242 10.94 7.72842 10.028C8.60442 9.104 9.85842 8.642 11.4904 8.642C13.0624 8.642 14.2084 8.996 14.9284 9.704C15.6604 10.4 16.0804 11.714 16.1884 13.646H22.3264C22.2304 11.246 21.4084 9.122 19.8604 7.274C18.3124 5.426 15.5224 4.502 11.4904 4.502C7.15842 4.502 4.20042 5.528 2.61642 7.58C1.03242 9.632 0.240417 12.698 0.240417 16.778C0.240417 20.798 1.00842 23.864 2.54442 25.976C4.09242 28.088 6.89442 29.144 10.9504 29.144Z" fill="#151515"/>
<path d="M33.8714 29.234C34.8314 29.234 35.7075 29.156 36.4995 29C37.3035 28.844 38.0115 28.64 38.6235 28.388C39.2475 28.124 39.7575 27.836 40.1535 27.524C40.5494 27.2 40.8194 26.876 40.9634 26.552L41.4855 29H46.5255V15.698C46.5255 13.634 46.1055 12.002 45.2654 10.802C44.4254 9.602 43.2254 8.744 41.6654 8.228C40.1054 7.712 38.2514 7.454 36.1034 7.454C34.7354 7.454 33.4634 7.568 32.2874 7.796C31.1234 8.012 30.0854 8.36 29.1734 8.84C28.2734 9.308 27.5294 9.92 26.9414 10.676C26.3654 11.42 25.9694 12.326 25.7534 13.394L31.6754 15.05C31.8434 14.186 32.1314 13.496 32.5394 12.98C32.9594 12.464 33.4754 12.092 34.0874 11.864C34.6994 11.636 35.3774 11.522 36.1214 11.522C36.9374 11.522 37.6694 11.642 38.3174 11.882C38.9774 12.11 39.4934 12.506 39.8654 13.07C40.2494 13.634 40.4414 14.402 40.4414 15.374V16.202H33.7094C32.8934 16.202 32.0894 16.256 31.2974 16.364C30.5054 16.46 29.7614 16.64 29.0654 16.904C28.3694 17.168 27.7574 17.54 27.2294 18.02C26.7014 18.5 26.2814 19.118 25.9694 19.874C25.6694 20.618 25.5194 21.536 25.5194 22.628C25.5194 23.756 25.6694 24.71 25.9694 25.49C26.2814 26.27 26.7074 26.906 27.2474 27.398C27.7874 27.89 28.4114 28.274 29.1194 28.55C29.8274 28.814 30.5834 28.994 31.3874 29.09C32.2034 29.186 33.0314 29.234 33.8714 29.234ZM35.2394 25.436C34.7834 25.436 34.3394 25.4 33.9074 25.328C33.4874 25.244 33.1034 25.1 32.7554 24.896C32.4194 24.68 32.1494 24.38 31.9454 23.996C31.7534 23.6 31.6574 23.084 31.6574 22.448C31.6574 21.824 31.7474 21.32 31.9274 20.936C32.1074 20.552 32.3534 20.258 32.6654 20.054C32.9894 19.85 33.3614 19.718 33.7814 19.658C34.2014 19.586 34.6515 19.55 35.1315 19.55H40.5854L40.4414 23.15C40.3454 23.486 40.1355 23.798 39.8115 24.086C39.4875 24.362 39.0794 24.602 38.5874 24.806C38.1074 25.01 37.5735 25.166 36.9855 25.274C36.4095 25.382 35.8274 25.436 35.2394 25.436Z" fill="#151515"/>
<path d="M49.9289 29H55.4549L55.9949 25.85V0.739998H49.9289V29ZM62.7449 29.144C65.6489 29.144 67.7489 28.178 69.0449 26.246C70.3409 24.302 70.9889 21.65 70.9889 18.29C70.9889 14.918 70.3409 12.278 69.0449 10.37C67.7489 8.45 65.6489 7.49 62.7449 7.49C60.2009 7.49 57.9869 8.084 56.1029 9.272C54.2309 10.448 53.2949 11.756 53.2949 13.196L55.9769 15.806C55.9769 14.642 56.4389 13.658 57.3629 12.854C58.2869 12.038 59.3789 11.63 60.6389 11.63C61.9949 11.63 63.0389 12.08 63.7709 12.98C64.5029 13.88 64.8689 15.656 64.8689 18.308C64.8689 20.996 64.5029 22.784 63.7709 23.672C63.0389 24.56 61.9949 25.004 60.6389 25.004C59.3789 25.004 58.2869 24.608 57.3629 23.816C56.4389 23.012 55.9769 22.01 55.9769 20.81L53.2949 23.456C53.2949 24.896 54.2309 26.204 56.1029 27.38C57.9869 28.556 60.2009 29.144 62.7449 29.144Z" fill="#151515"/>
<path d="M87.5494 18.182H93.5974C93.5974 14.51 93.0934 11.81 92.0854 10.082C91.0774 8.342 89.1634 7.472 86.3434 7.472C83.7394 7.472 81.6334 8.162 80.0254 9.542C78.4174 10.91 77.6134 12.602 77.6134 14.618L79.9354 16.004C79.9354 14.864 80.3074 13.856 81.0514 12.98C81.7954 12.092 82.8034 11.648 84.0754 11.648C85.1674 11.648 86.0194 12.068 86.6314 12.908C87.2434 13.736 87.5494 15.494 87.5494 18.182ZM73.9054 29H79.9534V11.36L78.5854 7.67H73.9054V29Z" fill="#151515"/>
<path d="M97.6117 29H103.678V7.652H97.6117V29ZM97.6117 1.244V5.474H103.678V1.244H97.6117Z" fill="#151515"/>
<path d="M117.97 29.216V25.31C116.422 25.31 115.192 24.83 114.28 23.87C113.38 22.91 112.93 21.062 112.93 18.326C112.93 15.53 113.386 13.67 114.298 12.746C115.21 11.822 116.398 11.36 117.862 11.36C119.35 11.36 120.508 11.786 121.336 12.638C122.176 13.49 122.596 14.942 122.596 16.994L122.812 16.454H112.372V20.108H128.464C128.548 19.58 128.59 18.98 128.59 18.308C128.59 14.936 127.81 12.284 126.25 10.352C124.702 8.42 121.906 7.454 117.862 7.454C113.914 7.454 111.13 8.408 109.51 10.316C107.89 12.212 107.08 14.882 107.08 18.326C107.08 21.686 107.884 24.344 109.492 26.3C111.112 28.244 113.938 29.216 117.97 29.216ZM117.97 25.31V29.216C120.106 29.216 121.792 29.012 123.028 28.604C124.276 28.184 125.338 27.542 126.214 26.678C127.102 25.814 127.678 24.68 127.942 23.276L122.524 21.746C122.272 22.514 121.966 23.18 121.606 23.744C121.258 24.308 120.79 24.71 120.202 24.95C119.614 25.19 118.87 25.31 117.97 25.31Z" fill="#151515"/>
<path d="M132.03 29H138.096V0.739998H132.03V29Z" fill="#151515"/>
<path d="M150.947 29H157.085V22.52H164.051C167.087 22.52 169.085 21.662 170.045 19.946C171.005 18.23 171.485 16.118 171.485 13.61C171.485 11.102 171.005 8.99 170.045 7.274C169.085 5.558 167.087 4.7 164.051 4.7H150.947V29ZM157.085 18.362V8.858H162.215C163.367 8.858 164.183 9.23 164.663 9.974C165.155 10.706 165.401 11.918 165.401 13.61C165.401 15.314 165.155 16.532 164.663 17.264C164.183 17.996 163.367 18.362 162.215 18.362H157.085Z" fill="#151515"/>
<path d="M184.591 29.216V25.31C183.043 25.31 181.813 24.83 180.901 23.87C180.001 22.91 179.551 21.062 179.551 18.326C179.551 15.53 180.007 13.67 180.919 12.746C181.831 11.822 183.019 11.36 184.483 11.36C185.971 11.36 187.129 11.786 187.957 12.638C188.797 13.49 189.217 14.942 189.217 16.994L189.433 16.454H178.993V20.108H195.085C195.169 19.58 195.211 18.98 195.211 18.308C195.211 14.936 194.431 12.284 192.871 10.352C191.323 8.42 188.527 7.454 184.483 7.454C180.535 7.454 177.751 8.408 176.131 10.316C174.511 12.212 173.701 14.882 173.701 18.326C173.701 21.686 174.505 24.344 176.113 26.3C177.733 28.244 180.559 29.216 184.591 29.216ZM184.591 25.31V29.216C186.727 29.216 188.413 29.012 189.649 28.604C190.897 28.184 191.959 27.542 192.835 26.678C193.723 25.814 194.299 24.68 194.563 23.276L189.145 21.746C188.893 22.514 188.587 23.18 188.227 23.744C187.879 24.308 187.411 24.71 186.823 24.95C186.235 25.19 185.491 25.31 184.591 25.31Z" fill="#151515"/>
<path d="M211.827 18.182H217.875C217.875 14.51 217.371 11.81 216.363 10.082C215.355 8.342 213.441 7.472 210.621 7.472C208.017 7.472 205.911 8.162 204.303 9.542C202.695 10.91 201.891 12.602 201.891 14.618L204.213 16.004C204.213 14.864 204.585 13.856 205.329 12.98C206.073 12.092 207.081 11.648 208.353 11.648C209.445 11.648 210.297 12.068 210.909 12.908C211.521 13.736 211.827 15.494 211.827 18.182ZM198.183 29H204.231V11.36L202.863 7.67H198.183V29Z" fill="#151515"/>
<path d="M231.419 29.216V25.31C229.871 25.31 228.641 24.83 227.729 23.87C226.829 22.91 226.379 21.062 226.379 18.326C226.379 15.53 226.835 13.67 227.747 12.746C228.659 11.822 229.847 11.36 231.311 11.36C232.799 11.36 233.957 11.786 234.785 12.638C235.625 13.49 236.045 14.942 236.045 16.994L236.261 16.454H225.821V20.108H241.913C241.997 19.58 242.039 18.98 242.039 18.308C242.039 14.936 241.259 12.284 239.699 10.352C238.151 8.42 235.355 7.454 231.311 7.454C227.363 7.454 224.579 8.408 222.959 10.316C221.339 12.212 220.529 14.882 220.529 18.326C220.529 21.686 221.333 24.344 222.941 26.3C224.561 28.244 227.387 29.216 231.419 29.216ZM231.419 25.31V29.216C233.555 29.216 235.241 29.012 236.477 28.604C237.725 28.184 238.787 27.542 239.663 26.678C240.551 25.814 241.127 24.68 241.391 23.276L235.973 21.746C235.721 22.514 235.415 23.18 235.055 23.744C234.707 24.308 234.239 24.71 233.651 24.95C233.063 25.19 232.319 25.31 231.419 25.31Z" fill="#151515"/>
<path d="M245.479 29H251.545V7.652H245.479V29ZM245.479 1.244V5.474H251.545V1.244H245.479Z" fill="#151515"/>
<path d="M269.131 18.182H275.179C275.179 14.51 274.675 11.81 273.667 10.082C272.659 8.342 270.745 7.472 267.925 7.472C265.321 7.472 263.215 8.162 261.607 9.542C259.999 10.91 259.195 12.602 259.195 14.618L261.517 16.004C261.517 14.864 261.889 13.856 262.633 12.98C263.377 12.092 264.385 11.648 265.657 11.648C266.749 11.648 267.601 12.068 268.213 12.908C268.825 13.736 269.131 15.494 269.131 18.182ZM255.487 29H261.535V11.36L260.167 7.67H255.487V29Z" fill="#151515"/>
<path d="M286.258 29.234C287.218 29.234 288.094 29.156 288.886 29C289.69 28.844 290.398 28.64 291.01 28.388C291.634 28.124 292.144 27.836 292.54 27.524C292.936 27.2 293.206 26.876 293.35 26.552L293.872 29H298.912V15.698C298.912 13.634 298.492 12.002 297.652 10.802C296.812 9.602 295.612 8.744 294.052 8.228C292.492 7.712 290.638 7.454 288.49 7.454C287.122 7.454 285.85 7.568 284.674 7.796C283.51 8.012 282.472 8.36 281.56 8.84C280.66 9.308 279.916 9.92 279.328 10.676C278.752 11.42 278.356 12.326 278.14 13.394L284.062 15.05C284.23 14.186 284.518 13.496 284.926 12.98C285.346 12.464 285.862 12.092 286.474 11.864C287.086 11.636 287.764 11.522 288.508 11.522C289.324 11.522 290.056 11.642 290.704 11.882C291.364 12.11 291.88 12.506 292.252 13.07C292.636 13.634 292.828 14.402 292.828 15.374V16.202H286.096C285.28 16.202 284.476 16.256 283.684 16.364C282.892 16.46 282.148 16.64 281.452 16.904C280.756 17.168 280.144 17.54 279.616 18.02C279.088 18.5 278.668 19.118 278.356 19.874C278.056 20.618 277.906 21.536 277.906 22.628C277.906 23.756 278.056 24.71 278.356 25.49C278.668 26.27 279.094 26.906 279.634 27.398C280.174 27.89 280.798 28.274 281.506 28.55C282.214 28.814 282.97 28.994 283.774 29.09C284.59 29.186 285.418 29.234 286.258 29.234ZM287.626 25.436C287.17 25.436 286.726 25.4 286.294 25.328C285.874 25.244 285.49 25.1 285.142 24.896C284.806 24.68 284.536 24.38 284.332 23.996C284.14 23.6 284.044 23.084 284.044 22.448C284.044 21.824 284.134 21.32 284.314 20.936C284.494 20.552 284.74 20.258 285.052 20.054C285.376 19.85 285.748 19.718 286.168 19.658C286.588 19.586 287.038 19.55 287.518 19.55H292.972L292.828 23.15C292.732 23.486 292.522 23.798 292.198 24.086C291.874 24.362 291.466 24.602 290.974 24.806C290.494 25.01 289.96 25.166 289.372 25.274C288.796 25.382 288.214 25.436 287.626 25.436Z" fill="#151515"/>
</svg>
